<svg width="45" height="45" viewBox="0 0 45 45" fill="none" xmlns="http://www.w3.org/2000/svg">
<path d="M23.1463 9.95891C24.0686 9.95891 24.9037 10.4712 25.3649 11.2273C25.5893 11.5932 25.7388 12.0445 25.7014 12.5202C25.6765 12.8861 25.7887 13.252 25.9881 13.5935C26.6238 14.6302 28.0323 15.0205 29.1291 14.435C30.3631 13.7276 31.9211 14.1545 32.6316 15.362L33.4667 16.8011C34.1896 18.0086 33.7908 19.5576 32.5443 20.2528C31.4849 20.8748 31.1109 22.253 31.7466 23.3019C31.9461 23.6312 32.1704 23.9117 32.5194 24.0825C32.9557 24.3142 33.2922 24.6801 33.529 25.046C33.9902 25.8022 33.9528 26.7291 33.5041 27.5463L32.6316 29.0098C32.1704 29.7904 31.3104 30.2783 30.4254 30.2783C29.9892 30.2783 29.503 30.1563 29.1042 29.9124C28.7801 29.705 28.4062 29.6319 28.0073 29.6319C26.7734 29.6319 25.7388 30.6442 25.7014 31.8516C25.7014 33.2542 24.5547 34.3519 23.1213 34.3519H21.4262C19.9803 34.3519 18.8336 33.2542 18.8336 31.8516C18.8087 30.6442 17.7741 29.6319 16.5402 29.6319C16.1289 29.6319 15.7549 29.705 15.4433 29.9124C15.0445 30.1563 14.5459 30.2783 14.1221 30.2783C13.2247 30.2783 12.3646 29.7904 11.9035 29.0098L11.0434 27.5463C10.5822 26.7535 10.5573 25.8022 11.0185 25.046C11.2179 24.6801 11.5918 24.3142 12.0156 24.0825C12.3646 23.9117 12.589 23.6312 12.8009 23.3019C13.4241 22.253 13.0502 20.8748 11.9907 20.2528C10.7567 19.5576 10.3579 18.0086 11.0683 16.8011L11.9035 15.362C12.6264 14.1545 14.172 13.7276 15.4184 14.435C16.5028 15.0205 17.9112 14.6302 18.5469 13.5935C18.7464 13.252 18.8585 12.8861 18.8336 12.5202C18.8087 12.0445 18.9458 11.5932 19.1826 11.2273C19.6438 10.4712 20.4789 9.9833 21.3888 9.95891H23.1463ZM22.2862 18.716C20.3293 18.716 18.7464 20.2528 18.7464 22.1676C18.7464 24.0825 20.3293 25.607 22.2862 25.607C24.2431 25.607 25.7887 24.0825 25.7887 22.1676C25.7887 20.2528 24.2431 18.716 22.2862 18.716Z" fill="#0C7FDA"/>
</svg>
