<svg width="45" height="45" viewBox="0 0 45 45" fill="none" xmlns="http://www.w3.org/2000/svg">
<path d="M18.777 33.5845V29.8551C18.777 28.9031 19.5544 28.1314 20.5134 28.1314H24.0189C24.4794 28.1314 24.9211 28.313 25.2467 28.6363C25.5723 28.9595 25.7553 29.398 25.7553 29.8551V33.5845C25.7523 33.9803 25.9087 34.3609 26.1896 34.6417C26.4705 34.9226 26.8527 35.0806 27.2514 35.0806H29.643C30.7599 35.0835 31.8321 34.645 32.623 33.8619C33.4138 33.0789 33.8583 32.0156 33.8583 30.9067V20.2824C33.8583 19.3867 33.4583 18.5371 32.7662 17.9624L24.6304 11.5119C23.2152 10.3809 21.1875 10.4174 19.8145 11.5986L11.8644 17.9624C11.1395 18.5201 10.7063 19.3723 10.6849 20.2824V30.8959C10.6849 33.207 12.5722 35.0806 14.9003 35.0806H17.2372C18.0653 35.0806 18.7383 34.4174 18.7443 33.5953L18.777 33.5845Z" fill="#5D7285"/>
</svg>
