<svg width="45" height="45" viewBox="0 0 45 45" fill="none" xmlns="http://www.w3.org/2000/svg">
<path d="M22.2095 25.7095C26.3943 25.7095 29.9676 26.373 29.9676 29.0279C29.9676 31.6817 26.4172 32.3693 22.2095 32.3693C18.0246 32.3693 14.4513 31.7058 14.4513 29.0521C14.4513 26.3972 18.0017 25.7095 22.2095 25.7095ZM28.9005 24.1109C30.5004 24.0812 32.2204 24.3009 32.856 24.4569C34.2025 24.7216 35.0882 25.262 35.4552 26.0474C35.7653 26.6922 35.7653 27.4402 35.4552 28.0839C34.8938 29.3021 33.0843 29.6931 32.381 29.7941C32.2357 29.8161 32.1189 29.6898 32.1341 29.5437C32.4934 26.1682 29.6355 24.5678 28.8961 24.1999C28.8645 24.1834 28.8579 24.1581 28.8612 24.1428C28.8634 24.1318 28.8765 24.1142 28.9005 24.1109ZM15.3423 24.1086L15.6436 24.1113C15.6676 24.1146 15.6796 24.1322 15.6818 24.1421C15.6851 24.1586 15.6785 24.1827 15.6479 24.2003C14.9075 24.5683 12.0495 26.1687 12.4088 29.543C12.4241 29.6902 12.3083 29.8155 12.1631 29.7946C11.4598 29.6935 9.65023 29.3025 9.0889 28.0843C8.77766 27.4396 8.77766 26.6926 9.0889 26.0479C9.45584 25.2625 10.3404 24.7221 11.687 24.4562C12.3236 24.3014 14.0426 24.0817 15.6436 24.1113L15.3423 24.1086ZM22.2095 12.8549C25.0587 12.8549 27.3433 15.1506 27.3433 18.0175C27.3433 20.8833 25.0587 23.1812 22.2095 23.1812C19.3602 23.1812 17.0756 20.8833 17.0756 18.0175C17.0756 15.1506 19.3602 12.8549 22.2095 12.8549ZM29.179 13.7158C31.931 13.7158 34.0922 16.3202 33.3562 19.2211C32.8593 21.1741 31.0606 22.4714 29.0567 22.4187C28.8557 22.4132 28.6581 22.3945 28.4669 22.3615C28.3283 22.3374 28.2584 22.1803 28.337 22.0639C29.1014 20.9325 29.5372 19.5715 29.5372 18.1106C29.5372 16.586 29.061 15.1647 28.2343 13.9992C28.2081 13.963 28.1885 13.907 28.2147 13.8652C28.2365 13.8312 28.2769 13.8136 28.3151 13.8048C28.5936 13.7477 28.8798 13.7158 29.179 13.7158ZM15.3634 13.7157C15.6627 13.7157 15.9488 13.7476 16.2284 13.8047C16.2655 13.8135 16.307 13.8322 16.3288 13.8651C16.3539 13.9069 16.3354 13.9629 16.3092 13.9991C15.4825 15.1646 15.0063 16.5859 15.0063 18.1105C15.0063 19.5714 15.4421 20.9324 16.2065 22.0638C16.2851 22.1802 16.2153 22.3373 16.0766 22.3614C15.8844 22.3955 15.6878 22.4131 15.4868 22.4186C13.4829 22.4713 11.6842 21.174 11.1873 19.221C10.4502 16.3201 12.6114 13.7157 15.3634 13.7157Z" fill="#5D7285"/>
</svg>
