<svg width="45" height="45" viewBox="0 0 45 45" fill="none" xmlns="http://www.w3.org/2000/svg">
<path d="M27.3832 9.8724C31.1507 9.8724 33.2485 12.0434 33.2485 15.7633V28.3623C33.2485 32.1432 31.1507 34.2654 27.3832 34.2654H17.1613C13.4536 34.2654 11.2948 32.1432 11.2948 28.3623V15.7633C11.2948 12.0434 13.4536 9.8724 17.1613 9.8724H27.3832ZM17.4906 26.6304C17.1247 26.5938 16.771 26.7646 16.5759 27.0817C16.3807 27.3866 16.3807 27.7891 16.5759 28.1062C16.771 28.4111 17.1247 28.594 17.4906 28.5452H27.0527C27.5393 28.4965 27.9064 28.0806 27.9064 27.5939C27.9064 27.0939 27.5393 26.6792 27.0527 26.6304H17.4906ZM27.0527 21.0676H17.4906C16.965 21.0676 16.5393 21.4957 16.5393 22.0201C16.5393 22.5446 16.965 22.9714 17.4906 22.9714H27.0527C27.5771 22.9714 28.004 22.5446 28.004 22.0201C28.004 21.4957 27.5771 21.0676 27.0527 21.0676ZM21.1362 15.5438H17.4906V15.556C16.965 15.556 16.5393 15.9828 16.5393 16.5073C16.5393 17.0317 16.965 17.4586 17.4906 17.4586H21.1362C21.6618 17.4586 22.0887 17.0317 22.0887 16.4939C22.0887 15.9706 21.6618 15.5438 21.1362 15.5438Z" fill="#5D7285"/>
</svg>
