<svg width="42" height="43" viewBox="0 0 42 43" fill="none" xmlns="http://www.w3.org/2000/svg">
<path d="M0.238281 21.5C0.238281 10.1091 9.47241 0.875 20.8633 0.875C32.2542 0.875 41.4883 10.1091 41.4883 21.5C41.4883 32.8909 32.2542 42.125 20.8633 42.125C9.47241 42.125 0.238281 32.8909 0.238281 21.5Z" fill="#7E869E" fill-opacity="0.25"/>
<path d="M30.0299 16.9167C30.0299 21.9793 25.9259 26.0833 20.8633 26.0833C15.8007 26.0833 11.6966 21.9793 11.6966 16.9167C11.6966 11.8541 15.8007 7.75 20.8633 7.75C25.9259 7.75 30.0299 11.8541 30.0299 16.9167Z" fill="#222222"/>
<path d="M35.3787 36.2635C35.4322 36.3607 35.4133 36.4814 35.3333 36.5583C31.8509 39.8995 27.1608 41.9918 21.9792 42.119C21.7338 42.125 21.4436 42.125 20.8633 42.125C20.283 42.125 19.9929 42.125 19.7475 42.119C14.566 41.9918 9.87596 39.8995 6.39359 36.5584C6.31351 36.4816 6.29462 36.3609 6.34815 36.2636C8.9152 31.6012 14.4498 28.375 20.8635 28.375C27.2771 28.375 32.8116 31.6012 35.3787 36.2635Z" fill="#222222"/>
</svg>
