<svg width="45" height="45" viewBox="0 0 45 45" fill="none" xmlns="http://www.w3.org/2000/svg">
<path d="M18.7769 33.5845V29.8551C18.7769 28.9031 19.5543 28.1314 20.5133 28.1314H24.0188C24.4793 28.1314 24.9209 28.313 25.2466 28.6363C25.5722 28.9595 25.7551 29.398 25.7551 29.8551V33.5845C25.7522 33.9803 25.9086 34.3609 26.1895 34.6417C26.4703 34.9226 26.8526 35.0806 27.2512 35.0806H29.6428C30.7598 35.0835 31.832 34.645 32.6229 33.8619C33.4137 33.0789 33.8582 32.0156 33.8582 30.9067V20.2824C33.8582 19.3867 33.4582 18.5371 32.7661 17.9624L24.6303 11.5119C23.2151 10.3809 21.1874 10.4174 19.8144 11.5986L11.8642 17.9624C11.1394 18.5201 10.7062 19.3723 10.6848 20.2824V30.8959C10.6848 33.207 12.5721 35.0806 14.9001 35.0806H17.2371C18.0652 35.0806 18.7382 34.4174 18.7442 33.5953L18.7769 33.5845Z" fill="#0C7FDA"/>
</svg>
