<svg width="45" height="45" viewBox="0 0 45 45" fill="none" xmlns="http://www.w3.org/2000/svg">
<path d="M27.3831 9.8724C31.1506 9.8724 33.2484 12.0434 33.2484 15.7633V28.3623C33.2484 32.1432 31.1506 34.2654 27.3831 34.2654H17.1613C13.4535 34.2654 11.2947 32.1432 11.2947 28.3623V15.7633C11.2947 12.0434 13.4535 9.8724 17.1613 9.8724H27.3831ZM17.4906 26.6304C17.1247 26.5938 16.771 26.7646 16.5758 27.0817C16.3807 27.3866 16.3807 27.7891 16.5758 28.1062C16.771 28.4111 17.1247 28.594 17.4906 28.5452H27.0526C27.5393 28.4965 27.9064 28.0806 27.9064 27.5939C27.9064 27.0939 27.5393 26.6792 27.0526 26.6304H17.4906ZM27.0526 21.0676H17.4906C16.9649 21.0676 16.5392 21.4957 16.5392 22.0201C16.5392 22.5446 16.9649 22.9714 17.4906 22.9714H27.0526C27.5771 22.9714 28.0039 22.5446 28.0039 22.0201C28.0039 21.4957 27.5771 21.0676 27.0526 21.0676ZM21.1361 15.5438H17.4906V15.556C16.9649 15.556 16.5392 15.9828 16.5392 16.5073C16.5392 17.0317 16.9649 17.4586 17.4906 17.4586H21.1361C21.6618 17.4586 22.0886 17.0317 22.0886 16.4939C22.0886 15.9706 21.6618 15.5438 21.1361 15.5438Z" fill="#0C7FDA"/>
</svg>
