<svg width="35" height="35" viewBox="0 0 35 35" fill="none" xmlns="http://www.w3.org/2000/svg">
<rect width="34.962" height="34.023" rx="7.3179" fill="#2196F3"/>
<path fill-rule="evenodd" clip-rule="evenodd" d="M12.8396 9.56856C12.3409 9.07698 12.3409 8.27995 12.8396 7.78836L16.5509 4.12971C17.0496 3.63812 17.8581 3.63812 18.3568 4.12971L22.0682 7.78836C22.5668 8.27995 22.5668 9.07698 22.0682 9.56856L18.3568 13.2272C17.8581 13.7188 17.0496 13.7188 16.5509 13.2272L12.8396 9.56856ZM16.7733 17.4675C16.524 17.2217 16.524 16.8232 16.7733 16.5774L17.0198 16.3344C17.2692 16.0886 17.6734 16.0886 17.9228 16.3344L18.1693 16.5774C18.4186 16.8232 18.4186 17.2217 18.1693 17.4675L17.9228 17.7105C17.6734 17.9563 17.2692 17.9563 17.0198 17.7105L16.7733 17.4675ZM21.5984 16.1512C21.0997 16.6428 21.0997 17.4398 21.5984 17.9314L25.3098 21.59C25.8084 22.0816 26.6169 22.0816 27.1156 21.59L30.827 17.9314C31.3256 17.4398 31.3256 16.6428 30.827 16.1512L27.1156 12.4925C26.6169 12.0009 25.8084 12.0009 25.3098 12.4925L21.5984 16.1512ZM4.13502 17.922C3.63635 17.4304 3.63635 16.6334 4.13502 16.1418L7.84639 12.4831C8.34506 11.9915 9.15357 11.9915 9.65224 12.4831L13.3636 16.1418C13.8623 16.6334 13.8623 17.4304 13.3636 17.922L9.65224 21.5806C9.15357 22.0722 8.34506 22.0722 7.84639 21.5806L4.13502 17.922ZM12.8396 24.4544C12.3409 24.946 12.3409 25.7431 12.8396 26.2346L16.5509 29.8933C17.0496 30.3849 17.8581 30.3849 18.3568 29.8933L22.0682 26.2346C22.5668 25.7431 22.5668 24.946 22.0682 24.4544L18.3568 20.7958C17.8581 20.3042 17.0496 20.3042 16.5509 20.7958L12.8396 24.4544Z" fill="white"/>
</svg>
