<svg width="38" height="40" viewBox="0 0 38 40" fill="none" xmlns="http://www.w3.org/2000/svg">
<path d="M6.88566 16.5293L5.89178 16.4189L5.89178 16.4189L6.88566 16.5293ZM4.70341 22.9944L5.5609 23.5089L4.70341 22.9944ZM31.1144 16.5293L32.1083 16.4189L32.1083 16.4189L31.1144 16.5293ZM33.2967 22.9944L32.4392 23.5089L32.4392 23.5089L33.2967 22.9944ZM2.06743 27.3877L2.92492 27.9022L2.06743 27.3877ZM35.9326 27.3877L36.7901 26.8732L36.7901 26.8732L35.9326 27.3877ZM24.8639 1.6869L24.538 2.63229L24.8639 1.6869ZM30.567 11.603L29.5731 11.7134L29.5731 11.7134L30.567 11.603ZM29.4852 5.82315L30.3888 5.3948L29.4852 5.82315ZM13.1361 1.6869L13.4621 2.63229L13.1361 1.6869ZM7.43304 11.603L8.42692 11.7134L8.42692 11.7134L7.43304 11.603ZM8.51483 5.82315L7.61122 5.3948L8.51483 5.82315ZM11.6667 30.4167C11.6667 29.8644 11.219 29.4167 10.6667 29.4167C10.1144 29.4167 9.6667 29.8644 9.6667 30.4167L11.6667 30.4167ZM28.3334 30.4167C28.3334 29.8644 27.8856 29.4167 27.3334 29.4167C26.7811 29.4167 26.3334 29.8644 26.3334 30.4167L28.3334 30.4167ZM34.2177 29.4167H3.78241V31.4167H34.2177V29.4167ZM29.5731 11.7134L30.1205 16.6398L32.1083 16.4189L31.5609 11.4925L29.5731 11.7134ZM7.87954 16.6398L8.42692 11.7134L6.43915 11.4925L5.89178 16.4189L7.87954 16.6398ZM2.92492 27.9022L5.5609 23.5089L3.84592 22.4799L1.20993 26.8732L2.92492 27.9022ZM32.4392 23.5089L35.0751 27.9022L36.7901 26.8732L34.1541 22.4799L32.4392 23.5089ZM5.89178 16.4189C5.69513 18.1887 5.60771 18.928 5.37413 19.62L7.26908 20.2596C7.58741 19.3165 7.69205 18.3272 7.87954 16.6398L5.89178 16.4189ZM5.5609 23.5089C6.43441 22.053 6.95076 21.2027 7.26908 20.2596L5.37413 19.62C5.14054 20.312 4.76206 20.953 3.84592 22.4799L5.5609 23.5089ZM30.1205 16.6398C30.308 18.3272 30.4127 19.3165 30.731 20.2596L32.6259 19.62C32.3924 18.928 32.3049 18.1887 32.1083 16.4189L30.1205 16.6398ZM34.1541 22.4799C33.238 20.953 32.8595 20.312 32.6259 19.62L30.731 20.2596C31.0493 21.2027 31.5656 22.053 32.4392 23.5089L34.1541 22.4799ZM3.78241 29.4167C2.96552 29.4167 2.46787 29.414 2.13139 29.3641C1.80202 29.3152 1.92851 29.2617 2.01622 29.4167L0.275823 30.4021C0.650764 31.0643 1.31239 31.2645 1.83789 31.3424C2.35627 31.4193 3.0332 31.4167 3.78241 31.4167V29.4167ZM1.20993 26.8732C0.824468 27.5156 0.473902 28.0947 0.273143 28.5788C0.0696292 29.0695 -0.0991188 29.7398 0.275823 30.4021L2.01622 29.4167C2.10393 29.5716 1.99301 29.6525 2.12057 29.345C2.25088 29.0308 2.50463 28.6027 2.92492 27.9022L1.20993 26.8732ZM34.2177 31.4167C34.9669 31.4167 35.6438 31.4193 36.1622 31.3424C36.6877 31.2645 37.3493 31.0643 37.7242 30.4021L35.9838 29.4167C36.0716 29.2618 36.198 29.3152 35.8687 29.3641C35.5322 29.414 35.0345 29.4167 34.2177 29.4167V31.4167ZM35.0751 27.9022C35.4954 28.6027 35.7492 29.0308 35.8795 29.345C36.007 29.6525 35.8961 29.5716 35.9838 29.4167L37.7242 30.4021C38.0992 29.7398 37.9304 29.0695 37.7269 28.5788C37.5262 28.0947 37.1756 27.5156 36.7901 26.8732L35.0751 27.9022ZM19 2.25C22.1441 2.25 23.4685 2.26356 24.538 2.63229L25.1899 0.741514C23.725 0.236436 21.9849 0.25 19 0.25V2.25ZM31.5609 11.4925C31.2313 8.52591 31.0526 6.79499 30.3888 5.3948L28.5816 6.25151C29.0662 7.2737 29.2259 8.58853 29.5731 11.7134L31.5609 11.4925ZM24.538 2.63229C26.3177 3.24589 27.7752 4.55045 28.5816 6.25151L30.3888 5.3948C29.3521 3.20773 27.4781 1.53043 25.1899 0.741514L24.538 2.63229ZM19 0.25C16.0152 0.25 14.2751 0.236436 12.8102 0.741514L13.4621 2.63229C14.5315 2.26356 15.8559 2.25 19 2.25V0.25ZM8.42692 11.7134C8.77413 8.58853 8.93387 7.2737 9.41844 6.25151L7.61122 5.3948C6.94745 6.79499 6.76878 8.52591 6.43915 11.4925L8.42692 11.7134ZM12.8102 0.741514C10.522 1.53043 8.648 3.20773 7.61122 5.3948L9.41844 6.25151C10.2248 4.55045 11.6824 3.24589 13.4621 2.63229L12.8102 0.741514ZM9.6667 30.4167C9.6667 31.6423 9.90811 32.856 10.3772 33.9884L12.2249 33.223C11.8564 32.3333 11.6667 31.3797 11.6667 30.4167L9.6667 30.4167ZM10.3772 33.9884C10.8462 35.1207 11.5337 36.1496 12.4004 37.0163L13.8146 35.6021C13.1336 34.9212 12.5934 34.1127 12.2249 33.223L10.3772 33.9884ZM12.4004 37.0163C13.267 37.883 14.2959 38.5705 15.4283 39.0395L16.1937 37.1918C15.304 36.8232 14.4955 36.2831 13.8146 35.6021L12.4004 37.0163ZM15.4283 39.0395C16.5607 39.5086 17.7744 39.75 19 39.75L19 37.75C18.037 37.75 17.0834 37.5603 16.1937 37.1918L15.4283 39.0395ZM19 39.75C20.2257 39.75 21.4394 39.5086 22.5717 39.0395L21.8064 37.1918C20.9167 37.5603 19.9631 37.75 19 37.75L19 39.75ZM22.5717 39.0395C23.7041 38.5705 24.733 37.883 25.5997 37.0163L24.1855 35.6021C23.5045 36.2831 22.6961 36.8232 21.8064 37.1918L22.5717 39.0395ZM25.5997 37.0163C26.4664 36.1496 27.1539 35.1207 27.6229 33.9884L25.7751 33.223C25.4066 34.1127 24.8664 34.9212 24.1855 35.6021L25.5997 37.0163ZM27.6229 33.9884C28.0919 32.856 28.3334 31.6423 28.3334 30.4167L26.3334 30.4167C26.3334 31.3797 26.1437 32.3333 25.7751 33.223L27.6229 33.9884Z" fill="#33363F"/>
</svg>
